0
SECTION
2
HEADER
9
$INSUNITS
70
4
9
$ACADVER
1
AC1014
9
$HANDSEED
5
FFFF
0
ENDSEC
0
SECTION
2
TABLES
0
TABLE
2
VPORT
5
8
100
AcDbSymbolTable
0
ENDTAB
0
TABLE
2
LTYPE
5
5
100
AcDbSymbolTable
0
LTYPE
5
14
100
AcDbSymbolTableRecord
100
AcDbLinetypeTableRecord
2
BYBLOCK
70
0
0
LTYPE
5
15
100
AcDbSymbolTableRecord
100
AcDbLinetypeTableRecord
2
BYLAYER
70
0
0
LTYPE
5
16
100
AcDbSymbolTableRecord
100
AcDbLinetypeTableRecord
2
DASHED
70
0
3
Dashed __ __ __ __ __ __ __ __ __ __ __ __ __ _
72
65
73
2
40
0.75
49
0.5
74
0
49
-0.25
74
0
0
ENDTAB
0
TABLE
2
LAYER
5
2
100
AcDbSymbolTable
70
2
0
LAYER
5
50
100
AcDbSymbolTableRecord
100
AcDbLayerTableRecord
2
0
70
0
62
7
6
CONTINUOUS
0
ENDTAB
0
TABLE
2
STYLE
5
3
100
AcDbSymbolTable
70
1
0
STYLE
5
11
100
AcDbSymbolTableRecord
100
AcDbTextStyleTableRecord
2
STANDARD
70
0
0
ENDTAB
0
TABLE
2
VIEW
5
6
100
AcDbSymbolTable
70
0
0
ENDTAB
0
TABLE
2
UCS
5
7
100
AcDbSymbolTable
70
0
0
ENDTAB
0
TABLE
2
APPID
5
9
100
AcDbSymbolTable
70
2
0
APPID
5
12
100
AcDbSymbolTableRecord
100
AcDbRegAppTableRecord
2
ACAD
70
0
0
ENDTAB
0
TABLE
2
DIMSTYLE
5
A
100
AcDbSymbolTable
70
1
0
ENDTAB
0
TABLE
2
BLOCK_RECORD
5
1
100
AcDbSymbolTable
70
1
0
BLOCK_RECORD
5
1F
100
AcDbSymbolTableRecord
100
AcDbBlockTableRecord
2
*MODEL_SPACE
0
BLOCK_RECORD
5
1B
100
AcDbSymbolTableRecord
100
AcDbBlockTableRecord
2
*PAPER_SPACE
0
ENDTAB
0
ENDSEC
0
SECTION
2
BLOCKS
0
BLOCK
5
20
100
AcDbEntity
100
AcDbBlockBegin
2
*MODEL_SPACE
0
ENDBLK
5
21
100
AcDbEntity
100
AcDbBlockEnd
0
BLOCK
5
1C
100
AcDbEntity
100
AcDbBlockBegin
2
*PAPER_SPACE
0
ENDBLK
5
1D
100
AcDbEntity
100
AcDbBlockEnd
0
ENDSEC
0
SECTION
2
ENTITIES
0
POINT
5
100
100
AcDbEntity
8
0
100
AcDbPoint
10
0
20
0
30
0
0
LINE
5
101
100
AcDbEntity
8
0
100
AcDbLine
10
65
20
63.999999792448065
30
0
11
65
21
-48.000000715255737
31
0
0
LINE
5
102
100
AcDbEntity
8
0
100
AcDbLine
10
65
20
-48.000000715255737
30
0
11
60.000000827014446
21
-48.000000715255737
31
0
0
LINE
5
103
100
AcDbEntity
8
0
100
AcDbLine
10
60.000000827014446
20
-57.000000849366188
30
0
11
65
21
-57.000000849366188
31
0
0
LINE
5
104
100
AcDbEntity
8
0
100
AcDbLine
10
65
20
-57.000000849366188
30
0
11
65
21
-64.000000968575478
31
0
0
ARC
5
105
100
AcDbEntity
8
0
100
AcDbCircle
10
60.000000827014446
20
-52.500000715255737
30
0
40
4.5000000000000018
210
0
220
-0
230
1
100
AcDbArc
50
90
51
180
0
ARC
5
106
100
AcDbEntity
8
0
100
AcDbCircle
10
60.000000827014446
20
-52.500000849366188
30
0
40
4.5000000000000018
210
0
220
0
230
1
100
AcDbArc
50
180
51
270
0
LINE
5
107
100
AcDbEntity
8
0
100
AcDbLine
10
64
20
-65.000000968575478
30
0
11
-35.89999919757247
21
-65.000000968575478
31
0
0
LINE
5
108
100
AcDbEntity
8
0
100
AcDbLine
10
-35.89999919757247
20
-65.000000968575478
30
0
11
-64.999998547136784
21
-35.89999919757247
31
0
0
LINE
5
109
100
AcDbEntity
8
0
100
AcDbLine
10
-64.999998547136784
20
-35.89999919757247
30
0
11
-64.999998547136784
21
63.999998547136784
31
0
0
LINE
5
110
100
AcDbEntity
8
0
100
AcDbLine
10
-63.999998547136784
20
64.999998547136784
30
0
11
-60.500000864267349
21
64.999998547136784
31
0
0
LINE
5
111
100
AcDbEntity
8
0
100
AcDbLine
10
-58.000000864267349
20
62.499998547136784
30
0
11
-58.000000864267349
21
41.599999070167542
31
0
0
LINE
5
112
100
AcDbEntity
8
0
100
AcDbLine
10
-58.000000864267349
20
41.599999070167542
30
0
11
58.000000864267349
21
41.599999070167542
31
0
0
LINE
5
113
100
AcDbEntity
8
0
100
AcDbLine
10
58.000000864267349
20
41.599999070167542
30
0
11
58.000000864267349
21
62.499999066016514
31
0
0
LINE
5
114
100
AcDbEntity
8
0
100
AcDbLine
10
60.500000345387562
20
64.999999066016457
30
0
11
63.999999792448094
21
64.999999792448037
31
0
0
ARC
5
115
100
AcDbEntity
8
0
100
AcDbCircle
10
60.500000864267356
20
62.499999066016507
30
0
40
2.5000000000000093
210
0
220
0
230
1
100
AcDbArc
50
90.000011891848914
51
180
0
ARC
5
116
100
AcDbEntity
8
0
100
AcDbCircle
10
-60.500000864267356
20
62.499998547136776
30
0
40
2.5000000000000089
210
0
220
-0
230
1
100
AcDbArc
50
0
51
89.999999999999844
0
ARC
5
117
100
AcDbEntity
8
0
100
AcDbCircle
10
-63.999998547136784
20
63.999998547136784
30
0
40
0.99999999999999645
210
0
220
-0
230
1
100
AcDbArc
50
90
51
180
0
ARC
5
118
100
AcDbEntity
8
0
100
AcDbCircle
10
63.999999999999993
20
63.999999792448051
30
0
40
1.0000000000000053
210
0
220
-0
230
1
100
AcDbArc
50
0
51
90.000011891847848
0
ARC
5
119
100
AcDbEntity
8
0
100
AcDbCircle
10
64
20
-64.000000968575478
30
0
40
0.99999999999999645
210
-0
220
0
230
1
100
AcDbArc
50
-90
51
0
0
CIRCLE
5
120
100
AcDbEntity
8
0
100
AcDbCircle
10
0
20
0
30
0
40
20
210
0
220
0
230
1
0
ENDSEC
0
SECTION
2
OBJECTS
0
DICTIONARY
5
C
100
AcDbDictionary
3
ACAD_GROUP
350
D
3
ACAD_MLINESTYLE
350
17
0
DICTIONARY
5
D
100
AcDbDictionary
0
DICTIONARY
5
1A
330
C
100
AcDbDictionary
0
DICTIONARY
5
17
100
AcDbDictionary
0
ENDSEC
0
EOF
